# xmcd
#
# Track frame offsets:
#	150
#	15232
#	37877
#	54309
#	70935
#	88275
#	104027
#	124800
#	144302
#	160650
#	181455
#	200775
#	219995
#	234605
#
# Disc length: 3367 seconds
# Revision: 0
# Processed by: cddbd v1.5.2PL0 Copyright (c) Steve Scherf et al.
# Submitted via: dBpowerAMP V12.0
#
DISCID=c20d250e
DTITLE=Catherine Porter - Catherine Porter
DYEAR=2000
DGENRE=Country
TTITLE0=She's Getting Louder
TTITLE1=The Answer
TTITLE2=Blame
TTITLE3=Tunnel Vision
TTITLE4=Out Of This House
TTITLE5=You've Got A Way
TTITLE6=Some Kind Of Angel
TTITLE7=Dream Come True
TTITLE8=Crazy
TTITLE9=Let The Love In
TTITLE10=My Next Song
TTITLE11=The Bowling Song
TTITLE12=The Cow Song [Bonus Track]
TTITLE13=Trailerland (Duet With Otis Lee Crenshaw) [Bonus Track]
EXTD=
EXTT0=
EXTT1=
EXTT2=
EXTT3=
EXTT4=
EXTT5=
EXTT6=
EXTT7=
EXTT8=
EXTT9=
EXTT10=
EXTT11=
EXTT12=
EXTT13=
PLAYORDER=
